<?xml version="1.0" encoding="UTF-8" standalone="no"?>
<!-- Created with Inkscape (http://www.inkscape.org/) -->

<svg
   width="30"
   height="60"
   viewBox="0 0 30 60"
   version="1.1"
   id="svg4154"
   inkscape:version="1.1.1 (c3084ef, 2021-09-22)"
   sodipodi:docname="btnJogMinus.svg"
   xmlns:inkscape="http://www.inkscape.org/namespaces/inkscape"
   xmlns:sodipodi="http://sodipodi.sourceforge.net/DTD/sodipodi-0.dtd"
   xmlns="http://www.w3.org/2000/svg"
   xmlns:svg="http://www.w3.org/2000/svg"
   xmlns:rdf="http://www.w3.org/1999/02/22-rdf-syntax-ns#"
   xmlns:cc="http://creativecommons.org/ns#"
   xmlns:dc="http://purl.org/dc/elements/1.1/">
  <defs
     id="defs4148" />
  <sodipodi:namedview
     id="base"
     pagecolor="#ffffff"
     bordercolor="#666666"
     borderopacity="1.0"
     inkscape:pageopacity="0.0"
     inkscape:pageshadow="2"
     inkscape:zoom="8"
     inkscape:cx="8.6875"
     inkscape:cy="30.4375"
     inkscape:document-units="px"
     inkscape:current-layer="layer1"
     showgrid="true"
     units="px"
     inkscape:window-width="3840"
     inkscape:window-height="2107"
     inkscape:window-x="0"
     inkscape:window-y="25"
     inkscape:window-maximized="1"
     inkscape:pagecheckerboard="0">
    <inkscape:grid
       type="xygrid"
       id="grid4699" />
  </sodipodi:namedview>
  <metadata
     id="metadata4151">
    <rdf:RDF>
      <cc:Work
         rdf:about="">
        <dc:format>image/svg+xml</dc:format>
        <dc:type
           rdf:resource="http://purl.org/dc/dcmitype/StillImage" />
      </cc:Work>
    </rdf:RDF>
  </metadata>
  <g
     inkscape:label="Calque 1"
     inkscape:groupmode="layer"
     id="layer1"
     transform="translate(0,-281.12499)">
    <text
       xml:space="preserve"
       style="font-style:normal;font-weight:normal;font-size:13.3333px;line-height:1.25;font-family:sans-serif;letter-spacing:0px;word-spacing:0px;fill:#000000;fill-opacity:1;stroke:none"
       x="1.6989479"
       y="293.25183"
       id="text5858"><tspan
         sodipodi:role="line"
         id="tspan5856"
         x="1.6989479"
         y="293.25183"
         style="font-style:normal;font-variant:normal;font-weight:600;font-stretch:normal;font-family:FreeSans;-inkscape-font-specification:'FreeSans Semi-Bold'">-</tspan></text>
    <path
       style="fill:none;stroke:#000000;stroke-width:1px;stroke-linecap:butt;stroke-linejoin:miter;stroke-opacity:1"
       d="m 14,288.12499 -10,41 -3,-2 2,11 8,-7 -4,-1 18,-39 z"
       id="path2660"
       sodipodi:nodetypes="cccccccc" />
    <path
       style="fill:#008080;stroke:#1700f0;stroke-width:0.125"
       d="M 3.3155726,55.53125 C 3.1059724,54.612887 1.8662587,47.52651 1.8985105,47.431125 c 0.021444,-0.06342 0.5634465,0.232119 1.2044495,0.656756 0.7778304,0.51528 1.1949432,0.724364 1.2541051,0.628638 0.048755,-0.07889 2.3284604,-9.328625 5.0660124,-20.554975 C 12.16063,16.935195 14.408782,7.74096 14.418973,7.729911 c 0.01019,-0.011049 2.214218,0.5782291 4.897841,1.3095068 l 4.879315,1.3295952 -8.923553,19.315493 c -4.907954,10.623522 -8.9503879,19.406263 -8.9831864,19.517201 -0.048938,0.165528 0.2392498,0.275217 1.6067383,0.611545 0.9165046,0.22541 1.7082669,0.433094 1.7594716,0.461518 0.082162,0.04561 -6.0896162,5.53773 -6.2230309,5.53773 -0.029043,0 -0.081691,-0.126562 -0.116996,-0.28125 z"
       id="path3317"
       transform="translate(0,281.12499)" />
  </g>
</svg>
