<?xml version="1.0" encoding="UTF-8" standalone="no"?>
<svg
   viewBox="0 0 50 50"
   version="1.1"
   xml:space="preserve"
   x="0px"
   y="0px"
   fill-rule="evenodd"
   clip-rule="evenodd"
   stroke-linejoin="round"
   stroke-miterlimit="2"
   id="svg128"
   sodipodi:docname="btnJogMinus_down.svg"
   inkscape:version="1.1.1 (c3084ef, 2021-09-22)"
   width="50"
   height="50"
   xmlns:inkscape="http://www.inkscape.org/namespaces/inkscape"
   xmlns:sodipodi="http://sodipodi.sourceforge.net/DTD/sodipodi-0.dtd"
   xmlns="http://www.w3.org/2000/svg"
   xmlns:svg="http://www.w3.org/2000/svg"><defs
     id="defs132" /><sodipodi:namedview
     id="namedview130"
     pagecolor="#ffffff"
     bordercolor="#666666"
     borderopacity="1.0"
     inkscape:pageshadow="2"
     inkscape:pageopacity="0.0"
     inkscape:pagecheckerboard="0"
     showgrid="false"
     inkscape:zoom="9.3125001"
     inkscape:cx="6.3892617"
     inkscape:cy="30.550335"
     inkscape:window-width="1384"
     inkscape:window-height="969"
     inkscape:window-x="0"
     inkscape:window-y="25"
     inkscape:window-maximized="0"
     inkscape:current-layer="g122"
     width="50px" /><g
     transform="matrix(1.7857143,0,0,1.7857143,-89.285715,-775.00001)"
     id="g122"
     style="fill:#008000"><path
       d="m 78,439 c 0,-1.326 -0.527,-2.598 -1.464,-3.536 C 75.598,434.527 74.326,434 73,434 H 55 c -1.326,0 -2.598,0.527 -3.536,1.464 C 50.527,436.402 50,437.674 50,439 v 18 c 0,1.326 0.527,2.598 1.464,3.536 0.938,0.937 2.21,1.464 3.536,1.464 h 18 c 1.326,0 2.598,-0.527 3.536,-1.464 C 77.473,459.598 78,458.326 78,457 Z m -20.5,8 c -0.552,0 -1,0.448 -1,1 0,0.552 0.448,1 1,1 10.838854,0.0212 5.379249,-0.002 13,0 0.552,0 1,-0.448 1,-1 0,-0.552 -0.448,-1 -1,-1 -4.327324,0.002 -9.16523,3.6e-4 -13,0 z"
       id="path120"
       style="fill:#390069;opacity:0.56;fill-opacity:1"
       sodipodi:nodetypes="scsscsscsscsscsccscc" /></g></svg>
